<?xml version="1.0" standalone="no"?>
<!DOCTYPE svg PUBLIC "-//W3C//DTD SVG 20010904//EN"
 "http://www.w3.org/TR/2001/REC-SVG-20010904/DTD/svg10.dtd">
<svg version="1.0" xmlns="http://www.w3.org/2000/svg"
 width="1597.000000pt" height="1597.000000pt" viewBox="0 0 1597.000000 1597.000000"
 preserveAspectRatio="xMidYMid meet">
<metadata>
Created by potrace 1.16, written by Peter Selinger 2001-2019
</metadata>
<g transform="translate(0.000000,1597.000000) scale(0.100000,-0.100000)"
fill="#000000" stroke="none">
<path d="M7715 13993 c-380 -23 -810 -107 -1203 -235 -330 -106 -554 -211
-792 -370 -299 -200 -501 -404 -714 -722 -246 -369 -405 -770 -506 -1281 -33
-164 -41 -223 -67 -455 -21 -189 -24 -837 -5 -1020 7 -63 16 -158 22 -210 32
-314 104 -678 201 -1023 l22 -79 -27 -56 c-86 -186 -72 -403 42 -645 56 -117
106 -199 210 -336 39 -52 74 -108 77 -125 13 -67 39 -162 47 -170 4 -6 8 -17
8 -25 0 -19 87 -192 162 -321 116 -202 129 -229 178 -385 39 -125 75 -415 67
-537 -11 -160 -46 -464 -63 -533 -18 -81 -15 -204 7 -249 19 -39 71 -70 105
-62 82 21 164 223 149 365 -13 119 -27 211 -50 331 -63 326 -60 478 10 625 35
72 117 169 138 162 24 -8 37 -54 37 -133 0 -83 13 -138 56 -232 24 -52 24 -54
25 -440 2 -386 -3 -471 -37 -637 -7 -38 -19 -88 -26 -110 -6 -22 -11 -96 -11
-165 0 -109 3 -135 27 -203 14 -43 40 -106 57 -139 31 -61 31 -63 26 -178 -3
-63 -11 -158 -17 -210 -21 -165 -3 -276 53 -337 29 -32 95 -32 130 1 46 43 60
84 65 191 5 112 -13 569 -28 715 -5 52 -17 174 -26 270 -9 96 -26 258 -39 360
-19 163 -21 208 -14 375 21 498 68 815 120 815 20 0 41 -55 54 -142 22 -148
56 -774 45 -833 -37 -198 -31 -287 23 -370 31 -48 32 -53 32 -150 -1 -55 -5
-157 -9 -226 -8 -114 -7 -128 10 -155 50 -77 94 -83 149 -23 81 90 106 195 93
379 -20 275 -21 354 -4 412 36 123 134 153 208 64 19 -24 59 -182 84 -331 36
-214 19 -539 -36 -690 -91 -250 -83 -476 22 -616 l39 -50 -16 -87 c-9 -48 -20
-103 -25 -122 -28 -109 -34 -156 -35 -255 0 -127 5 -152 41 -195 56 -66 160
-86 210 -39 67 62 90 169 87 409 -1 153 -11 268 -49 605 -8 72 -17 187 -21
257 l-6 127 35 40 c57 67 72 141 64 324 -3 84 -8 220 -12 302 -6 146 2 225 21
232 14 4 54 -57 72 -109 8 -24 21 -96 29 -161 8 -64 23 -145 34 -180 22 -70
25 -164 9 -253 -6 -32 -11 -104 -11 -159 -1 -104 13 -157 52 -200 27 -31 30
-71 13 -178 -8 -55 -13 -133 -11 -174 3 -72 5 -76 41 -109 20 -19 43 -34 51
-34 26 0 75 50 100 103 53 112 57 228 17 457 -18 104 -19 132 -10 313 17 342
43 507 90 559 29 32 30 32 44 14 12 -16 15 -53 15 -170 0 -91 6 -175 14 -211
8 -33 19 -104 27 -157 11 -86 10 -108 -5 -190 -10 -51 -22 -115 -26 -143 -12
-70 -11 -237 1 -320 5 -38 13 -111 18 -160 5 -59 14 -100 25 -118 17 -25 18
-46 13 -230 -4 -175 -9 -222 -36 -352 -17 -82 -31 -166 -31 -188 0 -21 14 -90
30 -154 34 -132 38 -205 13 -254 -14 -26 -18 -59 -18 -145 0 -107 1 -112 38
-186 34 -70 37 -81 31 -131 -10 -86 12 -181 51 -223 88 -93 205 4 235 196 24
157 9 648 -35 1155 -33 367 -45 516 -55 670 -14 211 -15 687 -1 795 26 200 33
250 48 330 21 113 51 232 62 243 16 16 55 2 69 -23 14 -27 11 -94 -9 -185 -17
-83 -22 -263 -10 -350 23 -152 29 -287 18 -382 -11 -99 -6 -168 32 -438 27
-185 26 -243 -4 -346 -28 -96 -33 -220 -11 -273 7 -18 29 -50 47 -71 l34 -38
-2 -113 c0 -62 -9 -187 -18 -279 -17 -164 -17 -168 2 -194 40 -53 106 -53 146
1 19 25 19 31 6 125 -18 126 -19 644 -2 838 7 77 18 210 24 295 10 146 12 157
40 199 16 24 29 52 29 61 0 9 5 21 10 26 29 29 28 293 -1 429 -6 28 -13 113
-16 191 -6 148 1 193 49 287 22 44 32 46 55 10 16 -24 18 -56 18 -288 1 -183
5 -278 15 -322 11 -51 11 -80 2 -165 -39 -331 -39 -291 -1 -478 20 -99 6 -258
-35 -425 -50 -197 -53 -305 -13 -388 15 -30 44 -70 65 -89 l37 -33 -8 -345
c-4 -190 -8 -360 -8 -379 0 -40 24 -76 71 -109 25 -17 47 -22 92 -22 73 0 108
19 139 74 22 38 23 53 27 286 2 135 -1 342 -7 460 -6 118 -18 346 -26 505 -8
160 -17 302 -20 317 -5 20 1 37 24 68 66 92 79 203 41 350 -20 77 -22 98 -15
220 5 74 9 227 10 340 1 219 10 297 56 484 28 115 98 286 117 286 27 0 21
-157 -13 -305 -43 -192 -47 -220 -41 -310 3 -49 8 -108 11 -131 5 -27 -2 -82
-19 -164 -42 -197 -33 -286 35 -356 l31 -32 -4 -181 -3 -182 33 -30 c28 -25
40 -29 90 -29 61 0 100 18 129 59 20 30 32 216 38 586 4 271 6 290 24 305 70
56 79 178 30 457 -36 210 -36 307 0 390 33 76 45 82 83 47 38 -36 68 -98 68
-144 0 -19 -15 -87 -33 -150 l-33 -115 3 -478 c3 -506 3 -509 50 -556 23 -22
113 -26 151 -7 65 34 65 32 65 399 0 297 -2 343 -21 439 -12 58 -28 125 -36
149 -13 38 -13 56 4 178 10 75 23 242 30 371 12 242 30 404 56 500 46 167 58
150 50 -69 -8 -209 -2 -243 57 -304 l39 -41 -6 -146 c-6 -163 2 -205 46 -229
33 -19 73 -7 100 30 18 24 19 33 7 210 -11 165 -10 199 6 329 10 80 17 188 16
240 -3 105 14 328 28 375 5 17 12 42 15 58 9 37 19 34 35 -9 13 -36 12 -44
-20 -217 -5 -26 -9 -114 -9 -195 0 -204 24 -286 94 -320 53 -26 142 11 176 73
49 88 57 267 20 465 -31 168 -36 240 -17 281 8 19 22 61 32 94 48 169 47 168
172 302 65 70 161 173 214 228 124 130 159 175 259 325 85 129 151 256 169
325 6 22 17 67 25 100 18 70 21 206 5 273 -6 26 -24 79 -40 117 l-30 71 36
124 c87 302 160 666 195 975 5 50 14 133 20 185 29 250 22 1062 -10 1250 -5
30 -14 91 -20 135 -44 314 -147 670 -281 974 -208 472 -510 853 -873 1100 -74
50 -136 91 -139 91 -2 0 -41 22 -86 49 -218 132 -563 278 -836 356 -33 9 -80
23 -105 30 -82 24 -221 55 -360 79 -302 52 -485 66 -814 64 -149 -1 -293 -3
-321 -5z m563 -124 c106 -11 211 -34 342 -74 101 -31 196 -56 305 -79 44 -9
96 -21 115 -26 19 -5 71 -17 115 -26 74 -15 128 -28 230 -56 120 -32 345 -118
345 -132 0 -9 -114 -196 -196 -322 -155 -239 -240 -333 -469 -517 -5 -5 -113
-86 -240 -180 -256 -192 -302 -239 -419 -427 -81 -130 -162 -226 -288 -340
-186 -169 -286 -310 -318 -449 l-13 -55 -13 45 c-7 24 -54 184 -103 354 -50
171 -97 343 -106 384 -8 40 -17 77 -20 81 -5 8 -20 165 -35 374 -6 82 -18 179
-26 215 -13 56 -58 160 -102 236 -135 235 -191 339 -223 418 -43 102 -66 198
-74 302 -6 71 -4 93 6 101 8 6 57 21 109 33 52 12 129 33 170 46 67 21 120 34
255 66 22 5 73 14 114 19 41 6 77 13 80 15 9 9 364 5 459 -6z m-1296 -306 c2
-65 3 -119 2 -121 -4 -6 -110 51 -149 81 -52 39 -105 89 -105 98 0 6 46 18
185 48 22 5 45 9 51 10 8 1 13 -37 16 -116z m-309 -7 c51 -62 137 -126 234
-174 94 -48 111 -67 178 -201 33 -67 66 -114 115 -166 178 -188 235 -362 265
-798 17 -240 32 -319 103 -532 51 -150 82 -258 108 -370 34 -149 67 -318 79
-405 18 -134 63 -479 75 -580 5 -47 21 -179 35 -295 14 -115 31 -226 37 -245
21 -69 86 -156 268 -367 136 -156 130 -143 114 -243 -19 -114 -22 -347 -5
-435 27 -143 57 -236 108 -334 l34 -64 -17 -44 c-9 -24 -21 -46 -25 -49 -18
-11 -73 68 -138 201 -101 204 -173 270 -277 251 -71 -14 -168 -132 -231 -281
-35 -85 -81 -141 -237 -295 -148 -146 -210 -223 -238 -297 -10 -26 -23 -57
-28 -68 -82 -180 -119 -300 -126 -408 -8 -109 1 -107 42 8 47 137 148 305 169
283 2 -2 -3 -28 -11 -58 -22 -76 -43 -204 -43 -269 -1 -51 -4 -57 -48 -101
-64 -63 -129 -86 -289 -101 -190 -18 -180 -19 -175 16 2 17 5 129 7 249 3 217
3 220 26 233 13 7 26 12 31 13 4 0 7 -36 7 -80 0 -95 16 -130 60 -130 39 0 86
58 100 124 6 28 10 118 9 200 l-1 149 80 37 c241 114 445 301 539 496 72 148
103 293 110 519 4 143 -9 245 -51 395 -22 80 -109 247 -164 316 -26 32 -71 98
-101 145 -169 278 -421 488 -639 534 -247 53 -650 -51 -916 -235 -136 -94
-272 -237 -346 -363 l-23 -38 -34 33 c-44 42 -98 155 -112 232 -6 33 -11 110
-11 172 l0 112 75 70 c125 117 303 209 575 298 99 32 111 39 92 47 -16 7 -67
7 -160 -1 -212 -18 -366 -54 -551 -131 -41 -17 -77 -31 -81 -31 -7 0 -22 37
-54 135 -9 28 -24 72 -33 99 -20 57 -29 46 116 139 140 91 233 200 274 322 5
18 10 229 12 520 2 577 17 739 90 981 33 107 31 119 -6 60 -53 -84 -117 -232
-170 -391 -73 -218 -104 -292 -134 -325 -39 -43 -67 -89 -122 -203 -24 -48
-62 -111 -85 -140 -22 -29 -55 -81 -71 -117 -29 -64 -30 -70 -38 -285 -8 -210
-15 -285 -26 -285 -3 0 -65 56 -139 125 -133 126 -204 215 -204 255 0 57 109
408 185 595 169 414 359 708 631 977 129 128 210 194 359 293 156 103 181 117
357 199 103 48 373 144 408 145 9 1 32 -19 53 -43z m3307 -198 c55 -28 97 -55
94 -60 -8 -13 -67 -35 -137 -53 -66 -16 -199 -36 -204 -31 -7 7 123 195 135
195 7 1 58 -22 112 -51z m251 -150 c324 -226 593 -548 790 -943 257 -518 382
-1097 378 -1755 -2 -480 -21 -643 -92 -769 -25 -47 -87 -121 -99 -121 -7 0 -8
28 -4 78 7 84 -6 208 -31 287 -99 317 -441 565 -905 655 -120 23 -348 38 -348
22 0 -6 17 -16 38 -22 194 -61 420 -166 559 -262 162 -111 304 -283 359 -432
46 -127 52 -246 24 -461 -38 -286 -39 -423 -7 -578 5 -24 -25 -14 -99 34 -43
29 -82 56 -85 61 -3 5 -9 62 -12 126 -23 434 -312 856 -739 1080 -314 165
-670 179 -943 39 -86 -45 -191 -124 -255 -194 -65 -69 -141 -174 -166 -227
-10 -20 -22 -36 -27 -36 -17 0 -267 132 -339 179 -227 149 -286 262 -333 631
-7 63 -21 168 -30 233 -15 118 -15 118 10 231 27 119 52 192 111 315 31 63 58
96 190 230 157 158 221 240 289 366 59 110 138 204 270 325 69 63 297 240 404
313 179 124 370 301 468 435 31 42 58 79 59 81 2 2 51 9 111 16 134 15 252 48
312 86 25 16 51 29 57 29 5 0 44 -23 85 -52z m-5404 -2129 c157 -160 162 -166
154 -196 -9 -32 -28 -71 -154 -314 -77 -150 -97 -212 -97 -301 0 -56 7 -57 26
-3 17 50 88 171 145 247 55 74 187 218 199 218 8 0 39 -83 60 -160 7 -25 16
-55 21 -68 15 -39 11 -48 -41 -81 -154 -100 -262 -252 -327 -461 -13 -41 -17
-92 -18 -197 0 -79 -3 -143 -7 -143 -15 0 -63 69 -95 135 -79 166 -115 442
-102 765 11 245 56 733 68 728 3 -2 79 -78 168 -169z m427 -1179 c26 -70 84
-170 132 -229 24 -29 43 -56 41 -60 -2 -3 -8 -17 -14 -31 -106 -229 -128 -335
-128 -605 0 -193 3 -220 29 -340 56 -258 165 -524 248 -607 48 -48 130 -93
198 -108 76 -16 255 -11 375 11 61 11 125 22 143 26 74 13 22 23 -125 23 -87
0 -176 5 -198 11 -45 12 -125 50 -125 59 0 3 33 6 73 7 39 1 106 11 147 23
146 40 185 50 219 52 33 3 35 1 44 -37 6 -22 11 -112 11 -201 1 -208 8 -199
-139 -190 -311 19 -574 131 -729 308 -44 52 -46 52 -46 25 0 -37 45 -151 82
-204 105 -154 313 -275 545 -318 109 -20 305 -16 427 9 44 8 81 15 82 13 4 -5
-15 -303 -20 -317 -5 -12 -23 -14 -89 -12 -92 4 -108 -1 -349 -105 -129 -55
-136 -57 -223 -58 -81 0 -96 3 -149 30 -56 28 -166 118 -166 135 0 4 23 5 50
2 28 -2 77 1 110 7 61 12 317 119 290 122 -8 0 -57 0 -107 -1 -109 -2 -147 9
-225 61 -32 21 -125 73 -208 115 -149 75 -151 76 -236 172 -150 170 -217 289
-230 408 -8 86 -13 95 -30 55 -20 -47 -18 -113 7 -227 26 -119 34 -184 23
-184 -14 0 -71 89 -99 155 -15 33 -33 96 -41 140 -13 71 -12 93 2 190 16 114
71 294 125 412 17 37 43 95 59 128 39 86 57 148 71 250 12 95 11 116 -21 462
-17 179 -19 239 -11 310 15 135 51 232 119 321 l27 36 6 -100 c4 -54 14 -119
23 -144z m2751 155 c67 -60 159 -116 345 -207 214 -105 202 -92 148 -164 -65
-85 -101 -148 -139 -241 -18 -46 -36 -83 -40 -83 -11 0 -110 153 -147 226 -17
33 -38 67 -48 75 -36 29 -111 159 -136 235 -24 71 -47 204 -36 204 2 0 26 -20
53 -45z m-2156 -381 c-63 -158 -70 -399 -19 -590 13 -49 25 -134 31 -224 5
-80 13 -165 18 -190 5 -25 7 -47 4 -50 -15 -16 -83 123 -83 170 0 40 -31 200
-44 225 -11 22 -14 2 -20 -154 -9 -235 -8 -239 152 -391 63 -61 109 -110 103
-110 -28 0 -139 67 -188 113 -39 37 -66 75 -94 134 -22 46 -42 83 -46 83 -10
0 7 -134 24 -180 42 -114 125 -197 248 -249 36 -15 68 -31 72 -34 3 -4 -23 -7
-58 -7 -180 0 -325 183 -408 516 -43 172 -53 461 -18 542 13 33 14 29 20 -90
5 -119 11 -158 26 -158 4 0 13 55 20 123 17 170 43 281 93 394 21 48 46 71 34
32 -12 -40 -19 -159 -10 -159 5 0 25 39 44 86 33 83 100 208 107 200 2 -2 -2
-16 -8 -32z m4347 -81 c89 -200 98 -210 88 -94 -4 45 -4 81 0 81 9 0 44 -81
61 -140 22 -73 49 -239 62 -365 4 -49 23 -71 24 -29 5 116 20 247 28 239 32
-32 27 -371 -7 -515 -50 -207 -117 -356 -204 -451 -70 -77 -174 -119 -253
-102 l-40 9 40 13 c197 65 311 201 322 384 l4 82 -30 -68 c-56 -128 -134 -209
-246 -257 -70 -30 -75 -24 -20 22 110 93 176 163 200 213 25 50 26 57 23 233
-1 100 -5 182 -9 182 -10 0 -27 -68 -44 -175 -18 -113 -47 -195 -77 -222 -21
-18 -21 -18 -14 17 3 19 11 100 16 180 6 80 20 176 30 215 10 38 21 93 25 120
3 28 11 84 17 126 13 87 -1 221 -33 324 -10 33 -19 64 -19 70 0 17 30 -33 56
-92z m594 -752 c115 -33 134 -44 155 -92 10 -24 27 -64 38 -89 29 -65 91 -225
117 -298 39 -114 44 -304 10 -398 -16 -44 -90 -187 -110 -215 -33 -43 -34 -11
-5 114 31 134 37 246 14 287 -13 24 -14 23 -20 -30 -15 -132 -66 -239 -172
-363 -137 -160 -152 -173 -297 -243 -74 -36 -164 -85 -200 -108 -36 -24 -72
-47 -80 -52 -8 -5 -75 -11 -149 -14 l-134 -5 119 -52 c176 -76 182 -78 267
-78 42 0 77 -2 77 -5 0 -14 -104 -94 -164 -126 -66 -35 -71 -36 -155 -32 -86
4 -166 30 -326 104 -124 57 -250 77 -356 55 -122 -25 -294 -136 -398 -257 -95
-108 -169 -272 -159 -352 3 -23 9 -16 43 53 42 83 137 195 194 228 38 22 38
18 5 -38 -39 -67 -64 -144 -64 -197 0 -52 9 -61 26 -25 52 110 112 206 163
261 33 35 118 83 128 72 3 -3 -6 -20 -20 -38 -37 -49 -57 -105 -64 -177 -7
-73 9 -78 28 -9 16 62 70 140 112 163 20 10 39 17 42 13 3 -3 1 -26 -5 -51
-10 -47 2 -135 36 -267 20 -77 18 -176 -5 -225 l-19 -40 -11 28 c-6 16 -11 34
-11 40 -1 22 -55 91 -89 114 -49 33 -98 30 -144 -8 -20 -17 -37 -37 -37 -45 0
-19 -20 -17 -55 6 -65 43 -141 12 -185 -77 l-25 -52 -30 19 c-63 41 -152 16
-201 -57 l-21 -31 -25 31 c-22 29 -30 31 -85 32 -50 0 -66 -5 -102 -29 -23
-16 -52 -47 -65 -69 l-24 -39 -12 23 c-7 13 -26 39 -43 56 -83 88 -235 58
-289 -58 -25 -53 -34 -59 -43 -28 -10 30 -63 88 -99 106 -17 9 -53 16 -81 17
-64 0 -110 -25 -148 -83 l-29 -42 -16 29 c-21 36 -80 88 -116 102 -53 20 -103
12 -140 -21 l-35 -30 -15 29 c-33 63 -140 94 -194 56 -28 -19 -52 -12 -52 16
0 26 -62 94 -100 110 -32 13 -89 1 -110 -26 -18 -21 -26 -18 -49 21 -28 48
-78 69 -131 55 -50 -13 -115 -86 -133 -149 l-13 -46 -19 30 c-30 44 -26 162 9
300 22 87 27 125 24 183 -3 39 -2 72 1 72 3 0 20 -9 38 -20 40 -24 78 -81 109
-162 l25 -63 -5 75 c-4 73 -24 133 -62 188 -21 29 -5 29 54 1 56 -28 102 -87
176 -227 33 -62 63 -112 68 -112 27 0 -13 171 -57 247 -15 24 -24 47 -21 50 8
8 74 -44 123 -96 42 -46 123 -188 123 -217 0 -9 5 -12 11 -8 15 9 6 75 -21
154 -29 87 -95 192 -171 270 -64 67 -65 69 -40 75 15 4 85 10 156 14 136 8
201 28 224 68 8 16 11 15 20 -10 6 -16 11 -37 11 -48 0 -11 13 -49 29 -84 36
-80 107 -151 187 -190 51 -25 71 -28 149 -29 77 0 98 4 145 27 30 14 71 41 90
59 33 30 44 44 90 113 l15 23 45 -56 c55 -68 133 -124 207 -147 51 -16 124
-17 218 -3 30 5 58 -85 59 -192 1 -123 -3 -130 -81 -167 l-67 -31 -42 29 c-30
20 -55 29 -84 29 -45 0 -94 -21 -103 -44 -7 -18 -3 -21 42 -31 19 -4 66 -27
105 -51 39 -24 75 -44 80 -44 5 0 45 21 88 46 82 48 100 51 205 29 28 -6 33
-4 46 21 8 16 27 40 41 53 26 25 34 51 16 51 -6 0 -28 -9 -50 -20 -40 -20 -54
-20 -149 7 -10 2 -12 12 -7 36 4 17 9 75 13 127 4 74 2 106 -11 143 -21 62
-21 59 14 98 45 49 79 110 108 192 25 67 26 82 25 237 -1 139 -5 180 -25 258
-13 50 -21 92 -18 92 18 0 130 -167 130 -193 0 -9 4 -18 8 -21 5 -3 17 -33 26
-68 28 -98 27 -96 36 -73 16 40 -8 202 -46 325 -46 145 -200 385 -327 509
l-55 53 15 37 c8 20 17 38 19 40 2 2 25 -19 51 -46 233 -242 541 -394 778
-381 131 7 133 20 6 46 -124 24 -199 55 -287 118 -58 41 -124 111 -124 131 0
5 34 5 83 -1 59 -7 131 -5 257 5 263 21 360 17 520 -21 74 -17 149 -36 165
-41 17 -6 74 -13 128 -16 54 -3 100 -10 102 -14 3 -4 -21 -20 -52 -36 -56 -27
-65 -28 -248 -33 -104 -3 -183 -8 -175 -12 124 -55 431 -79 555 -43 174 51
262 140 323 329 17 51 40 114 51 138 53 116 91 260 98 364 4 65 10 104 17 104
6 0 40 -8 76 -19z m-4251 -891 c-1 -48 1 -91 4 -96 2 -5 6 -40 8 -79 l4 -70
-30 0 c-24 0 -29 4 -27 20 6 35 5 107 -3 192 -9 94 5 153 32 131 11 -8 14 -33
12 -98z m-1195 -884 c75 -74 168 -151 222 -182 17 -10 16 -12 -8 -45 -31 -42
-54 -89 -63 -129 -11 -50 -25 -45 -25 9 0 70 -20 116 -120 271 -127 198 -127
196 -6 76z m5102 -663 c49 -115 61 -222 31 -279 -16 -30 -71 -63 -84 -50 -4 3
0 18 8 33 11 20 13 62 12 171 -3 173 3 195 33 125z m-1136 -52 c44 -31 54 -81
41 -211 -7 -63 -11 -138 -10 -166 2 -71 -7 -94 -38 -94 -14 0 -38 9 -54 21
-27 19 -29 25 -24 63 3 22 -1 93 -8 156 -13 115 -8 201 14 241 12 23 37 19 79
-10z m-2569 -8 c7 -19 8 -95 4 -229 l-7 -201 -28 -17 c-70 -40 -102 -8 -98 99
2 33 1 96 0 140 -6 157 -4 170 27 204 39 42 87 43 102 4z m219 -109 c29 -34
32 -42 26 -81 -3 -24 -9 -107 -12 -184 -6 -126 -9 -142 -28 -155 -77 -54 -106
46 -88 308 12 183 26 198 102 112z m2130 30 c13 -34 14 -383 1 -417 -12 -32
-31 -42 -65 -33 -33 8 -37 26 -41 179 -1 73 -8 145 -14 161 -13 32 -6 47 47
104 36 39 59 41 72 6z m-1872 -98 c48 -52 52 -79 49 -281 l-2 -130 -57 -3
c-55 -3 -57 -2 -85 34 -28 37 -28 39 -26 163 3 173 26 261 68 261 7 0 31 -20
53 -44z m990 28 c63 -44 104 -205 100 -388 l-3 -120 -30 -8 c-16 -5 -65 -10
-107 -11 -68 -2 -80 1 -100 20 -20 21 -23 34 -26 151 -9 268 65 427 166 356z
m616 1 c24 -25 40 -123 38 -243 -3 -138 -16 -177 -64 -190 -18 -4 -48 -6 -68
-2 l-35 5 -3 155 c-3 177 5 216 55 261 38 33 55 36 77 14z m-1342 -22 c28 -30
59 -87 77 -143 19 -59 -26 -336 -56 -347 -19 -7 -92 43 -102 70 -5 12 -13 74
-19 137 -17 178 -7 257 35 290 33 26 34 25 65 -7z m357 11 c12 -9 32 -37 44
-63 18 -40 21 -70 25 -233 l4 -187 -28 -26 c-31 -29 -82 -33 -176 -14 l-56 11
-6 77 c-8 93 13 254 43 332 24 63 73 119 105 119 12 0 32 -7 45 -16z m725 -23
c17 -29 19 -50 18 -159 -1 -69 -7 -154 -13 -190 -11 -61 -14 -65 -57 -93 -26
-16 -51 -28 -56 -26 -26 9 -72 244 -61 317 8 51 46 134 78 168 30 32 66 26 91
-17z m331 -1364 c0 -298 2 -348 24 -490 20 -138 22 -165 11 -215 -14 -67 -33
-97 -55 -89 -13 5 -15 30 -15 154 0 81 -4 186 -10 233 -17 148 -28 472 -20
566 8 89 42 196 58 180 4 -4 7 -157 7 -339z m-2985 235 c0 -84 16 -249 26
-276 10 -26 -24 -31 -50 -7 -45 43 -59 159 -32 272 29 121 56 127 56 11z m915
-799 c9 -38 30 -106 45 -153 16 -49 24 -87 18 -89 -14 -5 -67 48 -88 90 -26
49 -34 125 -21 177 7 23 15 42 20 42 4 0 16 -30 26 -67z m95 -635 c0 -13 -5
-66 -12 -119 -13 -106 -7 -135 40 -191 29 -34 19 -54 -23 -44 -49 12 -85 74
-85 146 0 32 34 167 50 203 16 33 30 35 30 5z m1718 -281 c9 -84 14 -99 52
-156 23 -34 48 -78 56 -96 19 -46 19 -214 0 -260 -24 -56 -36 -42 -36 41 0 78
-23 154 -75 249 -56 104 -70 188 -45 273 21 68 36 52 48 -51z m-838 -136 c0
-26 11 -93 25 -149 23 -92 25 -119 24 -296 -2 -149 -5 -196 -14 -196 -21 0
-29 48 -30 175 -1 98 -6 139 -29 224 -23 83 -28 118 -24 175 7 108 48 166 48
67z"/>
<path d="M6545 10828 c-27 -5 -54 -13 -59 -19 -6 -5 -19 -9 -30 -9 -20 -1 -97
-37 -86 -41 3 0 28 -3 55 -4 198 -13 342 -51 534 -141 91 -43 271 -141 281
-154 3 -3 28 -21 55 -40 82 -55 224 -171 313 -254 94 -89 103 -83 47 34 -106
219 -298 411 -531 529 -94 47 -212 87 -298 101 -74 12 -213 11 -281 -2z"/>
<path d="M10335 12716 c30 -98 50 -198 72 -351 13 -98 16 -216 17 -646 l2
-526 36 -75 c49 -98 113 -162 306 -301 86 -63 176 -131 199 -152 86 -75 283
-397 283 -461 0 -9 5 -12 11 -8 23 14 4 143 -35 239 -38 93 -133 284 -171 345
-55 87 -80 206 -90 415 -13 301 -31 382 -105 479 -47 61 -70 103 -131 231 -18
39 -54 93 -79 120 -44 46 -50 60 -85 183 -62 222 -174 489 -233 562 -20 24
-20 22 3 -54z"/>
<path d="M9125 10824 c-198 -46 -329 -113 -501 -255 -138 -114 -289 -325 -318
-446 -7 -26 -3 -24 51 28 355 341 810 573 1187 608 70 6 97 24 54 34 -13 3
-59 15 -103 26 -95 24 -276 27 -370 5z"/>
<path d="M10480 7971 c-68 -69 -104 -96 -175 -133 -94 -48 -178 -79 -281 -103
-93 -21 -314 -38 -438 -33 -61 3 -160 1 -221 -4 -107 -9 -256 2 -294 21 -9 5
-29 11 -46 15 l-30 8 38 -31 c34 -26 174 -100 232 -122 125 -47 341 -86 485
-88 81 0 252 23 322 45 240 74 390 199 463 385 20 50 41 131 33 128 -2 -1 -41
-40 -88 -88z"/>
<path d="M7190 6475 c0 -3 21 -32 46 -66 42 -54 50 -60 73 -54 75 20 116 17
166 -11 137 -75 123 -74 218 -13 39 25 72 39 93 39 36 0 47 10 38 34 -15 39
-109 60 -157 35 -12 -6 -32 -21 -45 -32 -19 -18 -26 -19 -40 -9 -9 6 -35 21
-57 33 -48 25 -171 37 -203 20 -18 -9 -29 -8 -61 9 -38 19 -71 26 -71 15z"/>
</g>
</svg>
